<?xml version="1.0" encoding="UTF-8" standalone="no"?>
<svg width="50px" height="50px" viewBox="0 0 50 50" version="1.1" xmlns="http://www.w3.org/2000/svg" xmlns:xlink="http://www.w3.org/1999/xlink">
    <!-- Generator: Sketch 42 (36781) - http://www.bohemiancoding.com/sketch -->
    <title>map-cluster</title>
    <desc>Created with Sketch.</desc>
    <defs>
        <path d="M1,0 L49,0 L25,25 L1,0 Z M18,50 L10,50 L8.8817842e-15,32 L0.0561876711,18.8589644 L25,25 L18,50 Z M32,50 L25,25 L49.9438123,18.8589644 L50,32 L40,50 L32,50 Z" id="path-1"></path>
    </defs>
    <g id="Connect---Production" stroke="none" stroke-width="1" fill="none" fill-rule="evenodd">
        <g id="map-cluster" transform="translate(0.000000, -1.000000)">
            <g transform="translate(0.000000, 1.000000)">
                <circle id="Oval" fill="#55ADA9" cx="25" cy="25" r="13"></circle>
                <mask id="mask-2" fill="white">
                    <use xlink:href="#path-1"></use>
                </mask>
                <g id="Mask"></g>
                <path d="M25,42 C15.6111593,42 8,34.3888407 8,25 C8,15.6111593 15.6111593,8 25,8 C34.3888407,8 42,15.6111593 42,25 C42,34.3888407 34.3888407,42 25,42 Z M25,39 C32.7319865,39 39,32.7319865 39,25 C39,17.2680135 32.7319865,11 25,11 C17.2680135,11 11,17.2680135 11,25 C11,32.7319865 17.2680135,39 25,39 Z" id="Ring-1" fill="#99CDCB" mask="url(#mask-2)"></path>
                <path d="M25,46 C13.4020203,46 4,36.5979797 4,25 C4,13.4020203 13.4020203,4 25,4 C36.5979797,4 46,13.4020203 46,25 C46,36.5979797 36.5979797,46 25,46 Z M25,43 C34.9411255,43 43,34.9411255 43,25 C43,15.0588745 34.9411255,7 25,7 C15.0588745,7 7,15.0588745 7,25 C7,34.9411255 15.0588745,43 25,43 Z" id="Ring-2" fill="#CBE5E4" mask="url(#mask-2)"></path>
                <path d="M25,50 C11.1928813,50 0,38.8071187 0,25 C0,11.1928813 11.1928813,0 25,0 C38.8071187,0 50,11.1928813 50,25 C50,38.8071187 38.8071187,50 25,50 Z M25,47 C37.1502645,47 47,37.1502645 47,25 C47,12.8497355 37.1502645,3 25,3 C12.8497355,3 3,12.8497355 3,25 C3,37.1502645 12.8497355,47 25,47 Z" id="Ring-3" fill="#EEF6F6" mask="url(#mask-2)"></path>
            </g>
        </g>
    </g>
</svg>